<?xml version="1.0" encoding="UTF-8"?><svg id="a" xmlns="http://www.w3.org/2000/svg" viewBox="0 0 522.31 522.31"><defs><style>.b{fill:none;stroke:#fff;stroke-width:12px;}.b,.c{stroke-miterlimit:10;}.d,.e{fill:#fff;}.c{fill:#065f35;stroke:#065f35;stroke-width:18px;}.e{font-family:Montserrat-Medium, Montserrat;font-size:161px;}</style></defs><circle class="c" cx="261.16" cy="261.16" r="252.16"/><g><line class="b" x1="119.78" y1="423.05" x2="382.48" y2="112.06"/><path class="d" d="M396.5,95.47c-3.7,10.26-6.94,24.12-6.78,34.55l-9.08-15.78-17.07-6.32c10.31-1.58,23.44-7.1,32.93-12.46Z"/></g><g><line class="b" x1="396.5" y1="423.05" x2="133.8" y2="112.06"/><path class="d" d="M119.78,95.47c9.5,5.36,22.62,10.88,32.94,12.46l-17.08,6.32-9.08,15.78c.16-10.43-3.08-24.3-6.78-34.55Z"/></g><text class="e" transform="translate(54.78 317.88)"><tspan x="0" y="0">D</tspan></text><text class="e" transform="translate(326.09 317.42)"><tspan x="0" y="0">M</tspan></text><g><path class="d" d="M229.96,456.66c5.29-7.5,10.53-14.93,15.93-22.59-2.52-.67-4.73-1.25-7.05-1.86,4.22-6.84,8.34-13.52,12.56-20.36l-6.17-1.32c3.97-7.34,7.85-14.52,11.82-21.84l-6.98-.91c.49-.87,.88-1.58,1.29-2.29,2.45-4.21,5.01-8.35,7.32-12.63,1.31-2.44,2.25-5.09,3.28-7.68,2.16-5.44,4.27-10.91,6.4-16.36,.14-.36,.3-.72,.55-1.32,.25,.51,.41,.78,.52,1.08,2.88,7.36,5.67,14.75,8.66,22.07,.94,2.31,2.36,4.42,3.61,6.6,1.85,3.23,3.74,6.43,5.61,9.65,.14,.24,.25,.49,.46,.89-2.29,.3-4.48,.59-6.95,.92,3.97,7.32,7.84,14.49,11.82,21.82-1.33,.3-2.52,.57-3.71,.83-2.66,.57-2.65,.13-1.17,2.54,3.58,5.84,7.21,11.66,10.81,17.49,.13,.21,.24,.42,.47,.83-2.27,.61-4.45,1.2-6.82,1.84,4.96,7.8,10.25,15.19,15.9,22.6-.5,.05-.82,.1-1.13,.11-10.27,.2-20.54,.39-30.8,.58-.16,0-.31,.02-.47,0-.93-.13-1.21,.25-1.21,1.2,.04,6.64,.02,13.28,.02,19.92,0,1.3-.03,2.61,.01,3.91,.02,.74-.27,.96-.99,.95-3.04-.03-6.08-.05-9.12,0-.93,.02-1.14-.31-1.14-1.18,.03-7.79,.02-15.58,.01-23.37,0-1.42,0-1.42-1.4-1.44-10.39-.19-20.79-.38-31.18-.57-.26,0-.53-.05-.77-.07Z"/><path class="d" d="M245.14,414.63c-4.16,6.66-8.26,13.22-12.48,19.96,2.29,.64,4.43,1.23,6.72,1.87-1.01,1.49-1.9,2.86-2.85,4.19-2.32,3.26-4.65,6.51-7.03,9.72-.24,.33-.8,.6-1.22,.6-4.37-.02-8.75-.11-13.12-.18-.3,0-.6-.07-.97-.11,4.82-6.84,9.58-13.6,14.49-20.55-2.31-.62-4.29-1.15-6.4-1.71l11.43-18.53-5.61-1.24c3.61-6.66,7.14-13.18,10.76-19.87l-6.33-.85c.27-.51,.45-.88,.66-1.24,2.48-4.26,5.1-8.45,7.4-12.8,1.44-2.73,2.41-5.7,3.54-8.58,1.78-4.5,3.52-9.01,5.27-13.51,.06-.16,.18-.31,.37-.63,.66,1.66,1.26,3.17,1.85,4.68,1.47,3.75,2.87,7.53,4.43,11.25,.51,1.21,.24,2.16-.34,3.14-3.72,6.41-7.46,12.81-11.19,19.21-.26,.45-.49,.91-.82,1.53,2.4,.3,4.65,.59,7.08,.9-.34,.69-.59,1.27-.89,1.83-3.35,6.19-6.7,12.38-10.05,18.56-.54,1-.55,1.01,.53,1.25,1.3,.29,2.6,.56,3.9,.85,.23,.05,.45,.14,.87,.28Z"/><path class="d" d="M244.57,467.87c0-2.01,.02-4.03-.01-6.04-.01-.69,.23-.92,.92-.9,2.82,.07,5.64,.11,8.46,.14,.61,0,.9,.19,.9,.86-.02,4.06-.02,8.12,0,12.18,0,.59-.2,.83-.81,.82-2.88-.02-5.77-.03-8.65,0-.71,0-.82-.33-.81-.92,.02-2.05,0-4.09,0-6.14Z"/></g></svg>