<?xml version="1.0" encoding="UTF-8"?><svg id="a" xmlns="http://www.w3.org/2000/svg" viewBox="0 0 504.31 504.31"><defs><style>.b{fill:#006838;}.c,.d{fill:#fff;}.d{font-family:Montserrat-Regular, Montserrat;font-size:161px;}.e{fill:none;stroke:#fff;stroke-miterlimit:10;stroke-width:8px;}</style></defs><circle class="b" cx="252.16" cy="252.16" r="252.16"/><g><line class="e" x1="110.78" y1="414.05" x2="375.66" y2="100.48"/><path class="c" d="M387.5,86.47c-3.12,8.66-5.86,20.37-5.72,29.18l-7.67-13.32-14.42-5.33c8.71-1.34,19.79-5.99,27.81-10.52Z"/></g><g><line class="e" x1="387.5" y1="414.05" x2="122.62" y2="100.48"/><path class="c" d="M110.78,86.47c8.02,4.53,19.11,9.18,27.81,10.52l-14.42,5.33-7.67,13.32c.14-8.81-2.6-20.52-5.73-29.18Z"/></g><text class="d" transform="translate(28.88 308.88)"><tspan x="0" y="0">D</tspan></text><text class="d" transform="translate(328.21 308.88)"><tspan x="0" y="0">M</tspan></text><g><path class="c" d="M220.78,443.2c4.41-6.25,8.78-12.45,13.28-18.83l-5.88-1.55c3.52-5.7,6.95-11.27,10.47-16.97l-5.14-1.1,9.85-18.21-5.82-.76c.41-.72,.73-1.32,1.08-1.91,2.04-3.51,4.18-6.96,6.1-10.53,1.1-2.04,1.88-4.25,2.74-6.41,1.8-4.54,3.56-9.09,5.34-13.64,.12-.3,.25-.6,.46-1.1,.21,.42,.34,.65,.44,.9,2.4,6.13,4.73,12.3,7.22,18.39,.79,1.92,1.97,3.68,3.01,5.5,1.54,2.69,3.12,5.36,4.67,8.04,.11,.2,.21,.41,.38,.74l-5.79,.76c3.31,6.1,6.54,12.08,9.85,18.19-1.11,.25-2.1,.48-3.09,.69-2.22,.47-2.21,.11-.98,2.12,2.99,4.87,6.01,9.72,9.01,14.57,.11,.17,.2,.35,.39,.69-1.89,.51-3.71,1-5.68,1.54,4.13,6.5,8.55,12.66,13.25,18.84-.42,.04-.68,.08-.94,.09-8.56,.16-17.12,.32-25.68,.48-.13,0-.26,.02-.39,0-.78-.11-1.01,.21-1.01,1,.03,5.54,.02,11.07,.02,16.61,0,1.09-.02,2.17,.01,3.26,.02,.62-.22,.8-.82,.8-2.53-.03-5.07-.04-7.6,0-.77,.01-.95-.26-.95-.98,.02-6.49,.01-12.98,.01-19.48,0-1.19,0-1.18-1.17-1.2-8.66-.16-17.33-.32-25.99-.48-.22,0-.44-.04-.64-.06Z"/><path class="c" d="M233.43,408.17c-3.47,5.55-6.89,11.02-10.4,16.64,1.9,.53,3.7,1.03,5.6,1.56-.84,1.24-1.58,2.38-2.37,3.49-1.94,2.72-3.88,5.42-5.86,8.11-.2,.27-.67,.5-1.01,.5-3.65-.02-7.29-.09-10.94-.15-.25,0-.5-.06-.81-.09,4.02-5.7,7.99-11.33,12.08-17.13l-5.34-1.43,9.53-15.45-4.68-1.03,8.97-16.56-5.28-.71c.22-.42,.38-.73,.55-1.03,2.07-3.55,4.25-7.04,6.17-10.67,1.2-2.27,2-4.75,2.95-7.15,1.48-3.75,2.93-7.51,4.4-11.27,.05-.14,.15-.26,.3-.53,.55,1.39,1.05,2.64,1.54,3.9,1.22,3.13,2.39,6.28,3.69,9.38,.42,1.01,.2,1.8-.28,2.62-3.1,5.34-6.22,10.67-9.32,16.01-.22,.37-.41,.76-.68,1.28,2,.25,3.88,.49,5.9,.75-.28,.58-.5,1.06-.75,1.53-2.79,5.16-5.58,10.32-8.38,15.47-.45,.83-.45,.84,.44,1.04,1.08,.24,2.17,.47,3.25,.71,.19,.04,.38,.12,.72,.23Z"/><path class="c" d="M232.96,452.55c0-1.68,.02-3.36,0-5.04,0-.57,.19-.77,.77-.75,2.35,.06,4.7,.09,7.05,.12,.51,0,.75,.16,.75,.71-.02,3.38-.02,6.77,0,10.15,0,.49-.17,.69-.67,.69-2.4-.02-4.81-.02-7.21,0-.59,0-.68-.28-.68-.77,.01-1.71,0-3.41,0-5.12Z"/></g></svg>