<?xml version="1.0" encoding="UTF-8"?><svg id="a" xmlns="http://www.w3.org/2000/svg" viewBox="0 0 1507.26 520.16"><defs><style>.b,.c,.d{fill:#fff;}.c{font-size:161px;}.c,.d{font-family:Montserrat-Regular, Montserrat;}.e{stroke-width:8px;}.e,.f{fill:none;stroke:#fff;stroke-miterlimit:10;}.d{font-size:263px;}.f{stroke-width:9px;}</style></defs><circle class="f" cx="256.66" cy="256.66" r="252.16"/><g><line class="e" x1="115.28" y1="418.55" x2="380.16" y2="104.98"/><path class="b" d="M392,90.97c-3.12,8.66-5.86,20.37-5.72,29.18l-7.67-13.32-14.42-5.33c8.71-1.34,19.79-5.99,27.81-10.52Z"/></g><g><line class="e" x1="392" y1="418.55" x2="127.12" y2="104.98"/><path class="b" d="M115.28,90.97c8.02,4.53,19.11,9.18,27.81,10.52l-14.42,5.33-7.67,13.32c.14-8.81-2.6-20.52-5.73-29.18Z"/></g><text class="c" transform="translate(33.38 313.38)"><tspan x="0" y="0">D</tspan></text><text class="c" transform="translate(332.71 313.38)"><tspan x="0" y="0">M</tspan></text><g><path class="b" d="M225.28,447.7c4.41-6.25,8.78-12.45,13.28-18.83l-5.88-1.55c3.52-5.7,6.95-11.27,10.47-16.97l-5.14-1.1,9.85-18.21-5.82-.76c.41-.72,.73-1.32,1.08-1.91,2.04-3.51,4.18-6.96,6.1-10.53,1.1-2.04,1.88-4.25,2.74-6.41,1.8-4.54,3.56-9.09,5.34-13.64,.12-.3,.25-.6,.46-1.1,.21,.42,.34,.65,.44,.9,2.4,6.13,4.73,12.3,7.22,18.39,.79,1.92,1.97,3.68,3.01,5.5,1.54,2.69,3.12,5.36,4.67,8.04,.11,.2,.21,.41,.38,.74l-5.79,.76c3.31,6.1,6.54,12.08,9.85,18.19-1.11,.25-2.1,.48-3.09,.69-2.22,.47-2.21,.11-.98,2.12,2.99,4.87,6.01,9.72,9.01,14.57,.11,.17,.2,.35,.39,.69-1.89,.51-3.71,1-5.68,1.54,4.13,6.5,8.55,12.66,13.25,18.84-.42,.04-.68,.08-.94,.09-8.56,.16-17.12,.32-25.68,.48-.13,0-.26,.02-.39,0-.78-.11-1.01,.21-1.01,1,.03,5.54,.02,11.07,.02,16.61,0,1.09-.02,2.17,.01,3.26,.02,.62-.22,.8-.82,.8-2.53-.03-5.07-.04-7.6,0-.77,.01-.95-.26-.95-.98,.02-6.49,.01-12.98,.01-19.48,0-1.19,0-1.18-1.17-1.2-8.66-.16-17.33-.32-25.99-.48-.22,0-.44-.04-.64-.06Z"/><path class="b" d="M237.93,412.67c-3.47,5.55-6.89,11.02-10.4,16.64,1.9,.53,3.7,1.03,5.6,1.56-.84,1.24-1.58,2.38-2.37,3.49-1.94,2.72-3.88,5.42-5.86,8.11-.2,.27-.67,.5-1.01,.5-3.65-.02-7.29-.09-10.94-.15-.25,0-.5-.06-.81-.09,4.02-5.7,7.99-11.33,12.08-17.13l-5.34-1.43,9.53-15.45-4.68-1.03,8.97-16.56-5.28-.71c.22-.42,.38-.73,.55-1.03,2.07-3.55,4.25-7.04,6.17-10.67,1.2-2.27,2-4.75,2.95-7.15,1.48-3.75,2.93-7.51,4.4-11.27,.05-.14,.15-.26,.3-.53,.55,1.39,1.05,2.64,1.54,3.9,1.22,3.13,2.39,6.28,3.69,9.38,.42,1.01,.2,1.8-.28,2.62-3.1,5.34-6.22,10.67-9.32,16.01-.22,.37-.41,.76-.68,1.28,2,.25,3.88,.49,5.9,.75-.28,.58-.5,1.06-.75,1.53-2.79,5.16-5.58,10.32-8.38,15.47-.45,.83-.45,.84,.44,1.04,1.08,.24,2.17,.47,3.25,.71,.19,.04,.38,.12,.72,.23Z"/><path class="b" d="M237.46,457.05c0-1.68,.02-3.36,0-5.04,0-.57,.19-.77,.77-.75,2.35,.06,4.7,.09,7.05,.12,.51,0,.75,.16,.75,.71-.02,3.38-.02,6.77,0,10.15,0,.49-.17,.69-.67,.69-2.4-.02-4.81-.02-7.21,0-.59,0-.68-.28-.68-.77,.01-1.71,0-3.41,0-5.12Z"/></g><text class="d" transform="translate(628.3 451.26)"><tspan x="0" y="0">Dustin</tspan></text><path class="b" d="M1080.67,29.7c9.86,15.13,18.95,30.52,29.79,45.32,9.73,13.28,21.9,25.72,31.93,38.91,4.95,6.51,6.91,14.05,11.26,20.81,4.42,6.86,9.07,13.91,15.84,19.65,2.26,1.91,13.03,1.59,17.16-.39,31.05-14.91,61.75-30.19,91.8-46.03,9.7-5.11,17.05-12.3,25.7-18.38,1.49-1.05,4.26-1.99,6.15-1.78,1.34,.15,3.09,2.33,3.11,3.61,.3,21.96,18.95,38.42,34.13,56.27,11.69,13.73,19.01,29.19,28.52,43.8,1.82,2.8,4.9,5.19,7.16,7.87,6.17,7.33,12.06,12.55,26.22,5.85,7.97-3.78,39.12,10.29,44.95,18.76,3.47,5.04,12.9,8.72,20.75,11.64,10.13,3.77,21.36,6.16,32.11,9.15v4.29c-9.3-1.22-18.61-2.38-27.89-3.68-4.04-.56-8.41-2.53-11.92-1.92-24.91,4.3-45.36-3.19-65.87-10.87-1.06-.4-2.2-.71-3.34-.99-.42-.1-.96,.02-4.62,.19,8.03,4.28,14.19,7.53,20.29,10.84,.99,.53,1.7,1.31,2.53,1.97-1.45,.54-3.59,1.8-4.25,1.51-11.06-4.95-22.17-9.88-32.72-15.31-3.08-1.59-4.47-4.7-9.81-5.76,3.14,3.39,6.35,6.75,9.36,10.19,.95,1.09,1.35,2.4,2,3.61-2.2,.24-5.24,1.23-6.44,.59-3.3-1.74-6-4.06-8.62-6.33-5.34-4.61-11.19-9.05-15.48-14.1-4.57-5.38-7.59-11.38-10.89-16.5-2.22-.15-6.09-.41-10.5-.71-6.43,12.08-13.6,13.64-18.01,2.68-1.15-2.85-1.91-5.81-2.33-8.75-.39-2.74-.08-5.52-.08-8.48-7.39,10.09-14.31,19.79-21.68,29.34-1.11,1.44-4.3,2.13-6.53,3.17-.77-1.39-2.4-2.84-2.18-4.16,2.45-14.76,5.49-29.47,7.66-44.24,.61-4.14-1.13-8.44-1.8-12.66-2.41-.25-4.82-.49-7.24-.74-9.34,20.89-18.76,41.76-27.68,62.73-.31,.74,4.29,2.41,6.52,3.71,2.64,1.54,5.2,3.15,7.8,4.73-2.92,.48-5.83,.96-8.67,1.43,1.86,1.15,4.96,2.36,6.42,4.19,1.3,1.62,.77,3.91,1.05,5.91-3.24,.21-6.85,1.16-9.67,.51-15.43-3.57-31.2-6.77-45.77-11.63-9.17-3.06-16.43-8.8-23.28-12.64,.24-.31-1.18,1.54-2.6,3.4-1.69-.76-3.31-1.61-5.08-2.28-29.84-11.3-18.59-31.89-22.99-47.2-2.06,.72-4.53,1.59-7.01,2.45l-1.17-12.64c-1.05,0-2.1,.02-3.15,.02,0,11.16,.14,22.31-.14,33.47-.05,1.85-1.94,3.68-2.98,5.51-2.19-1.39-6.24-2.75-6.29-4.17-.52-13.78,.94-27.65-.81-41.34-1.4-10.97-6.43-21.72-9.98-32.55-.15-.45-1.62-.71-2.48-1.05-.62,.8-1.6,1.56-1.82,2.41-5.21,20.22-9.26,40.62-15.94,60.61-3.4,10.17-11.1,19.74-17.95,29.21-1.08,1.49-8,1.17-12.24,1.21-.59,0-.86-2.87-1.92-4.16-14.14-17.36,11.99-26.81,16.71-40.42,2.34-6.73,2.48-13.82,1.1-20.99-2.41,5.01-4.73,10.03-7.31,14.99-.43,.83-2.04,1.37-3.11,2.04-.25-.92-.75-1.84-.73-2.75,.65-23.33,2.42-46.67,1.49-69.97-.36-8.92-6.89-17.73-11.28-28.2-10.56,10.07-20.75,19.78-30.94,29.49-3.44,3.28-6.85,6.56-10.31,9.82-2.44,2.3-4.96,4.56-7.45,6.84,4.14-.56,8.27-1.15,12.42-1.69,4.27-.55,8.55-1.04,12.82-1.56-2.57,2.19-5.43,4.26-7.66,6.6-13.29,13.89-27.14,27.57-39.13,41.97-3.02,3.63-.03,9.64,.49,14.54,.06,.54,2.53,1.58,2.99,1.39,1.94-.8,3.85-1.82,5.21-3.05,12.66-11.41,25.11-22.94,37.99-34.24,1.02-.9,4.85-.3,7.38-.4-.98,1.24-1.59,2.74-2.99,3.68-30.24,20.3-32.61,46.36-31.78,72.9,.1,3.32,5.08,6.47,6.97,9.91,1.11,2.02,.57,4.46,.78,6.71-4.86-.2-12.91,.72-14.05-.8-6.74-8.92-11.87-18.41-17.58-27.7-.44-.71-1.1-1.36-1.42-1.75-1.54,1.42-2.97,2.74-4.4,4.06-1.67-1.22-3.93-2.25-4.88-3.69-1.78-2.68-1.91-6.04-4.32-8.33-5.25-4.99-12.09-9.23-16.96-14.36-1.35-1.42,2.2-4.86,3.05-7.44,1.33-4.02,2.27-8.1,3.39-12.18-21.91,4.83-66.67,32.77-82.46,43.77-17.13,11.94-40.24,20.03-61.44,29.03-11.12,4.72-23.56,8.1-35.76,11.47-3.68,1.02-8.59-.04-12.94-.14,2.83-1.93,5.24-4.3,8.54-5.72,22.04-9.45,45.86-17.36,65.93-28.46,15.47-8.55,30.67-19.82,37.88-32.1,6.31-10.75,1.32-24.59-2.75-37.69-5.46,8.98-10.94,17.95-16.39,26.93-1.66,2.74-2.85,5.67-4.99,8.22-1.95,2.33-4.9,4.27-7.41,6.38,.76-2.28,1.64-4.54,2.22-6.84,.17-.66-.25-1.88-.87-2.05-21.35-5.96-2.56-12.38-.25-18.43,1.04-2.71,4.01-5.08,4.72-8.2-5.38,4.96-10.56,10.03-16.17,14.87-16.85,14.55-33.86,29.03-50.88,43.49-.72,.61-2.17,.81-3.28,1.2-.31-1.82-1.69-3.95-.76-5.4,4.84-7.58,10.25-14.98,16.54-23.98-7.8,4.44-15.26,7.28-19.85,11.56-11.75,10.95-28.57,20.64-45.71,20.45-16.17-.18-16.07,8.63-24.7,10.68-6.72,1.59-15.88-1.99-22.96-.7-18.29,3.31-35.96,8.2-54.07,12.03-2.61,.55-6.29-1.25-9.48-1.96,1.9-2.86,3.28-7.97,5.77-8.24,37.31-3.94,71.07-13.2,100.96-29.11,13.09-6.97,25.68-15.26,40.59-19.57,30.8-8.91,50.66-26.84,76.74-39.45,10.98-5.31,24.04-8.73,36.6-12.25,1.89-.53,7.74,2.6,9.21,4.83,6.31,9.53,11.6,19.37,17.57,29.01,.3,.48,4.13,.67,5.2,.06,3.5-1.97,6.25-4.56,9.72-6.56,8.46-4.87,17.83-9.08,25.63-14.39,22.17-15.1,45.14-29.8,65.14-46.18,20.02-16.4,36.83-34.63,55.04-52.05h4.18Zm181.53,114.67c-2.27,.99-5.66,1.75-7.38,3.35-12.33,11.41-24.2,23.06-36.56,34.46-1.78,1.64-5.38,2.37-8.14,3.52-.3-1.95-.18-3.98-1.01-5.82-1.34-2.98-3.29-5.84-4.99-8.74-2.75,2.24-8.2,4.77-7.78,6.68,1.97,8.94,4.1,18.12,8.99,26.44,5.09,8.67,12.53,9.72,20.31,.11,8.57-10.59,19.48-20.3,28.16-30.85,6.54-7.96,11.17-16.65,16.62-24.98-3.82,0-6.13,.24-8.15-.17-.5-.1-.07-2.33-.07-3.99Zm91.27,56.95l-3.51,.68c1.61,4.1,3.22,8.19,4.82,12.29,1.26-.24,2.51-.49,3.77-.73-1.69-4.08-3.39-8.16-5.08-12.24Zm-201.92-43.99l-2,.14c.84,2.6,1.68,5.2,2.53,7.8l2.47-.42c-1-2.51-2-5.02-3-7.53Z"/></svg>