<?xml version="1.0" encoding="UTF-8"?><svg id="a" xmlns="http://www.w3.org/2000/svg" viewBox="0 0 1511.76 524.66"><defs><style>.b{stroke-width:12px;}.b,.c{fill:none;stroke:#065f35;stroke-miterlimit:10;}.d,.e,.f{fill:#065f35;}.e{font-family:Montserrat-Medium, Montserrat;font-size:161px;}.f{font-family:Montserrat-Regular, Montserrat;font-size:263px;}.c{stroke-width:18px;}</style></defs><circle class="c" cx="261.16" cy="261.16" r="252.16"/><g><line class="b" x1="119.78" y1="423.05" x2="382.48" y2="112.06"/><path class="d" d="M396.5,95.47c-3.7,10.26-6.94,24.12-6.78,34.55l-9.08-15.78-17.07-6.32c10.31-1.58,23.44-7.1,32.93-12.46Z"/></g><g><line class="b" x1="396.5" y1="423.05" x2="133.8" y2="112.06"/><path class="d" d="M119.78,95.47c9.5,5.36,22.62,10.88,32.94,12.46l-17.08,6.32-9.08,15.78c.16-10.43-3.08-24.3-6.78-34.55Z"/></g><text class="e" transform="translate(54.78 317.88)"><tspan x="0" y="0">D</tspan></text><text class="e" transform="translate(326.09 317.42)"><tspan x="0" y="0">M</tspan></text><g><path class="d" d="M229.96,456.66c5.29-7.5,10.53-14.93,15.93-22.59-2.52-.67-4.73-1.25-7.05-1.86,4.22-6.84,8.34-13.52,12.56-20.36l-6.17-1.32c3.97-7.34,7.85-14.52,11.82-21.84l-6.98-.91c.49-.87,.88-1.58,1.29-2.29,2.45-4.21,5.01-8.35,7.32-12.63,1.31-2.44,2.25-5.09,3.28-7.68,2.16-5.44,4.27-10.91,6.4-16.36,.14-.36,.3-.72,.55-1.32,.25,.51,.41,.78,.52,1.08,2.88,7.36,5.67,14.75,8.66,22.07,.94,2.31,2.36,4.42,3.61,6.6,1.85,3.23,3.74,6.43,5.61,9.65,.14,.24,.25,.49,.46,.89-2.29,.3-4.48,.59-6.95,.92,3.97,7.32,7.84,14.49,11.82,21.82-1.33,.3-2.52,.57-3.71,.83-2.66,.57-2.65,.13-1.17,2.54,3.58,5.84,7.21,11.66,10.81,17.49,.13,.21,.24,.42,.47,.83-2.27,.61-4.45,1.2-6.82,1.84,4.96,7.8,10.25,15.19,15.9,22.6-.5,.05-.82,.1-1.13,.11-10.27,.2-20.54,.39-30.8,.58-.16,0-.31,.02-.47,0-.93-.13-1.21,.25-1.21,1.2,.04,6.64,.02,13.28,.02,19.92,0,1.3-.03,2.61,.01,3.91,.02,.74-.27,.96-.99,.95-3.04-.03-6.08-.05-9.12,0-.93,.02-1.14-.31-1.14-1.18,.03-7.79,.02-15.58,.01-23.37,0-1.42,0-1.42-1.4-1.44-10.39-.19-20.79-.38-31.18-.57-.26,0-.53-.05-.77-.07Z"/><path class="d" d="M245.14,414.63c-4.16,6.66-8.26,13.22-12.48,19.96,2.29,.64,4.43,1.23,6.72,1.87-1.01,1.49-1.9,2.86-2.85,4.19-2.32,3.26-4.65,6.51-7.03,9.72-.24,.33-.8,.6-1.22,.6-4.37-.02-8.75-.11-13.12-.18-.3,0-.6-.07-.97-.11,4.82-6.84,9.58-13.6,14.49-20.55-2.31-.62-4.29-1.15-6.4-1.71l11.43-18.53-5.61-1.24c3.61-6.66,7.14-13.18,10.76-19.87l-6.33-.85c.27-.51,.45-.88,.66-1.24,2.48-4.26,5.1-8.45,7.4-12.8,1.44-2.73,2.41-5.7,3.54-8.58,1.78-4.5,3.52-9.01,5.27-13.51,.06-.16,.18-.31,.37-.63,.66,1.66,1.26,3.17,1.85,4.68,1.47,3.75,2.87,7.53,4.43,11.25,.51,1.21,.24,2.16-.34,3.14-3.72,6.41-7.46,12.81-11.19,19.21-.26,.45-.49,.91-.82,1.53,2.4,.3,4.65,.59,7.08,.9-.34,.69-.59,1.27-.89,1.83-3.35,6.19-6.7,12.38-10.05,18.56-.54,1-.55,1.01,.53,1.25,1.3,.29,2.6,.56,3.9,.85,.23,.05,.45,.14,.87,.28Z"/><path class="d" d="M244.57,467.87c0-2.01,.02-4.03-.01-6.04-.01-.69,.23-.92,.92-.9,2.82,.07,5.64,.11,8.46,.14,.61,0,.9,.19,.9,.86-.02,4.06-.02,8.12,0,12.18,0,.59-.2,.83-.81,.82-2.88-.02-5.77-.03-8.65,0-.71,0-.82-.33-.81-.92,.02-2.05,0-4.09,0-6.14Z"/></g><text class="f" transform="translate(632.8 455.76)"><tspan x="0" y="0">Dustin</tspan></text><path class="d" d="M1085.17,34.2c9.86,15.13,18.95,30.52,29.79,45.32,9.73,13.28,21.9,25.72,31.93,38.91,4.95,6.51,6.91,14.05,11.26,20.81,4.42,6.86,9.07,13.91,15.84,19.65,2.26,1.91,13.03,1.59,17.16-.39,31.05-14.91,61.75-30.19,91.8-46.03,9.7-5.11,17.05-12.3,25.7-18.38,1.49-1.05,4.26-1.99,6.15-1.78,1.34,.15,3.09,2.33,3.11,3.61,.3,21.96,18.95,38.42,34.13,56.27,11.69,13.73,19.01,29.19,28.52,43.8,1.82,2.8,4.9,5.19,7.16,7.87,6.17,7.33,12.06,12.55,26.22,5.85,7.97-3.78,39.12,10.29,44.95,18.76,3.47,5.04,12.9,8.72,20.75,11.64,10.13,3.77,21.36,6.16,32.11,9.15v4.29c-9.3-1.22-18.61-2.38-27.89-3.68-4.04-.56-8.41-2.53-11.92-1.92-24.91,4.3-45.36-3.19-65.87-10.87-1.06-.4-2.2-.71-3.34-.99-.42-.1-.96,.02-4.62,.19,8.03,4.28,14.19,7.53,20.29,10.84,.99,.53,1.7,1.31,2.53,1.97-1.45,.54-3.59,1.8-4.25,1.51-11.06-4.95-22.17-9.88-32.72-15.31-3.08-1.59-4.47-4.7-9.81-5.76,3.14,3.39,6.35,6.75,9.36,10.19,.95,1.09,1.35,2.4,2,3.61-2.2,.24-5.24,1.23-6.44,.59-3.3-1.74-6-4.06-8.62-6.33-5.34-4.61-11.19-9.05-15.48-14.1-4.57-5.38-7.59-11.38-10.89-16.5-2.22-.15-6.09-.41-10.5-.71-6.43,12.08-13.6,13.64-18.01,2.68-1.15-2.85-1.91-5.81-2.33-8.75-.39-2.74-.08-5.52-.08-8.48-7.39,10.09-14.31,19.79-21.68,29.34-1.11,1.44-4.3,2.13-6.53,3.17-.77-1.39-2.4-2.84-2.18-4.16,2.45-14.76,5.49-29.47,7.66-44.24,.61-4.14-1.13-8.44-1.8-12.66-2.41-.25-4.82-.49-7.24-.74-9.34,20.89-18.76,41.76-27.68,62.73-.31,.74,4.29,2.41,6.52,3.71,2.64,1.54,5.2,3.15,7.8,4.73-2.92,.48-5.83,.96-8.67,1.43,1.86,1.15,4.96,2.36,6.42,4.19,1.3,1.62,.77,3.91,1.05,5.91-3.24,.21-6.85,1.16-9.67,.51-15.43-3.57-31.2-6.77-45.77-11.63-9.17-3.06-16.43-8.8-23.28-12.64,.24-.31-1.18,1.54-2.6,3.4-1.69-.76-3.31-1.61-5.08-2.28-29.84-11.3-18.59-31.89-22.99-47.2-2.06,.72-4.53,1.59-7.01,2.45l-1.17-12.64c-1.05,0-2.1,.02-3.15,.02,0,11.16,.14,22.31-.14,33.47-.05,1.85-1.94,3.68-2.98,5.51-2.19-1.39-6.24-2.75-6.29-4.17-.52-13.78,.94-27.65-.81-41.34-1.4-10.97-6.43-21.72-9.98-32.55-.15-.45-1.62-.71-2.48-1.05-.62,.8-1.6,1.56-1.82,2.41-5.21,20.22-9.26,40.62-15.94,60.61-3.4,10.17-11.1,19.74-17.95,29.21-1.08,1.49-8,1.17-12.24,1.21-.59,0-.86-2.87-1.92-4.16-14.14-17.36,11.99-26.81,16.71-40.42,2.34-6.73,2.48-13.82,1.1-20.99-2.41,5.01-4.73,10.03-7.31,14.99-.43,.83-2.04,1.37-3.11,2.04-.25-.92-.75-1.84-.73-2.75,.65-23.33,2.42-46.67,1.49-69.97-.36-8.92-6.89-17.73-11.28-28.2-10.56,10.07-20.75,19.78-30.94,29.49-3.44,3.28-6.85,6.56-10.31,9.82-2.44,2.3-4.96,4.56-7.45,6.84,4.14-.56,8.27-1.15,12.42-1.69,4.27-.55,8.55-1.04,12.82-1.56-2.57,2.19-5.43,4.26-7.66,6.6-13.29,13.89-27.14,27.57-39.13,41.97-3.02,3.63-.03,9.64,.49,14.54,.06,.54,2.53,1.58,2.99,1.39,1.94-.8,3.85-1.82,5.21-3.05,12.66-11.41,25.11-22.94,37.99-34.24,1.02-.9,4.85-.3,7.38-.4-.98,1.24-1.59,2.74-2.99,3.68-30.24,20.3-32.61,46.36-31.78,72.9,.1,3.32,5.08,6.47,6.97,9.91,1.11,2.02,.57,4.46,.78,6.71-4.86-.2-12.91,.72-14.05-.8-6.74-8.92-11.87-18.41-17.58-27.7-.44-.71-1.1-1.36-1.42-1.75-1.54,1.42-2.97,2.74-4.4,4.06-1.67-1.22-3.93-2.25-4.88-3.69-1.78-2.68-1.91-6.04-4.32-8.33-5.25-4.99-12.09-9.23-16.96-14.36-1.35-1.42,2.2-4.86,3.05-7.44,1.33-4.02,2.27-8.1,3.39-12.18-21.91,4.83-66.67,32.77-82.46,43.77-17.13,11.94-40.24,20.03-61.44,29.03-11.12,4.72-23.56,8.1-35.76,11.47-3.68,1.02-8.59-.04-12.94-.14,2.83-1.93,5.24-4.3,8.54-5.72,22.04-9.45,45.86-17.36,65.93-28.46,15.47-8.55,30.67-19.82,37.88-32.1,6.31-10.75,1.32-24.59-2.75-37.69-5.46,8.98-10.94,17.95-16.39,26.93-1.66,2.74-2.85,5.67-4.99,8.22-1.95,2.33-4.9,4.27-7.41,6.38,.76-2.28,1.64-4.54,2.22-6.84,.17-.66-.25-1.88-.87-2.05-21.35-5.96-2.56-12.38-.25-18.43,1.04-2.71,4.01-5.08,4.72-8.2-5.38,4.96-10.56,10.03-16.17,14.87-16.85,14.55-33.86,29.03-50.88,43.49-.72,.61-2.17,.81-3.28,1.2-.31-1.82-1.69-3.95-.76-5.4,4.84-7.58,10.25-14.98,16.54-23.98-7.8,4.44-15.26,7.28-19.85,11.56-11.75,10.95-28.57,20.64-45.71,20.45-16.17-.18-16.07,8.63-24.7,10.68-6.72,1.59-15.88-1.99-22.96-.7-18.29,3.31-35.96,8.2-54.07,12.03-2.61,.55-6.29-1.25-9.48-1.96,1.9-2.86,3.28-7.97,5.77-8.24,37.31-3.94,71.07-13.2,100.96-29.11,13.09-6.97,25.68-15.26,40.59-19.57,30.8-8.91,50.66-26.84,76.74-39.45,10.98-5.31,24.04-8.73,36.6-12.25,1.89-.53,7.74,2.6,9.21,4.83,6.31,9.53,11.6,19.37,17.57,29.01,.3,.48,4.13,.67,5.2,.06,3.5-1.97,6.25-4.56,9.72-6.56,8.46-4.87,17.83-9.08,25.63-14.39,22.17-15.1,45.14-29.8,65.14-46.18,20.02-16.4,36.83-34.63,55.04-52.05h4.18Zm181.53,114.67c-2.27,.99-5.66,1.75-7.38,3.35-12.33,11.41-24.2,23.06-36.56,34.46-1.78,1.64-5.38,2.37-8.14,3.52-.3-1.95-.18-3.98-1.01-5.82-1.34-2.98-3.29-5.84-4.99-8.74-2.75,2.24-8.2,4.77-7.78,6.68,1.97,8.94,4.1,18.12,8.99,26.44,5.09,8.67,12.53,9.72,20.31,.11,8.57-10.59,19.48-20.3,28.16-30.85,6.54-7.96,11.17-16.65,16.62-24.98-3.82,0-6.13,.24-8.15-.17-.5-.1-.07-2.33-.07-3.99Zm91.27,56.95l-3.51,.68c1.61,4.1,3.22,8.19,4.82,12.29,1.26-.24,2.51-.49,3.77-.73-1.69-4.08-3.39-8.16-5.08-12.24Zm-201.92-43.99l-2,.14c.84,2.6,1.68,5.2,2.53,7.8l2.47-.42c-1-2.51-2-5.02-3-7.53Z"/></svg>